<?xml version="1.0" encoding="utf-8"?>
<!-- Generator: Adobe Illustrator 21.1.0, SVG Export Plug-In . SVG Version: 6.00 Build 0)  -->
<svg version="1.1" id="Layer_1" xmlns="http://www.w3.org/2000/svg" xmlns:xlink="http://www.w3.org/1999/xlink" x="0px" y="0px"
	 viewBox="0 0 18 18" style="enable-background:new 0 0 18 18;" xml:space="preserve">
<style type="text/css">
	.st0{fill:#71808F;}
	.st1{fill:#A8B1BA;}
</style>
<rect x="-0.3" y="-0.3" class="st0" width="18.6" height="18.6"/>
<g>
	<path class="st1" d="M9.6-3v2.5H12v1.1H9.6v2.5H8.4V0.6H6v-1.1h2.4V-3H9.6z"/>
</g>
<g>
	<path class="st1" d="M9.6,14.8v2.5H12v1.1H9.6V21H8.4v-2.5H6v-1.1h2.4v-2.5H9.6z"/>
</g>
<g>
	<path class="st1" d="M0.6,5.9v2.5h2.4v1.1H0.6V12h-1.1V9.5h-2.4V8.4h2.4V5.9H0.6z"/>
</g>
<g>
	<path class="st1" d="M18.5,5.9v2.5h2.4v1.1h-2.4V12h-1.1V9.5h-2.4V8.4h2.4V5.9H18.5z"/>
</g>
</svg>
