<?xml version="1.0" encoding="utf-8"?>
<!-- Generator: Adobe Illustrator 21.1.0, SVG Export Plug-In . SVG Version: 6.00 Build 0)  -->
<svg version="1.1" id="Layer_1" xmlns="http://www.w3.org/2000/svg" xmlns:xlink="http://www.w3.org/1999/xlink" x="0px" y="0px"
	 viewBox="0 0 84.3 84.3" style="enable-background:new 0 0 84.3 84.3;" xml:space="preserve">
<style type="text/css">
	.st0{fill:#71808F;}
	.st1{fill:#A8B1BA;}
</style>
<rect x="-1.9" y="-1.9" class="st0" width="88" height="88"/>
<g>
	<path class="st1" d="M44.8-14.5v11.9h11.4v5.1H44.8v12h-5.4v-12H28.1v-5.1h11.4v-11.9H44.8z"/>
</g>
<g>
	<path class="st1" d="M44.8,69.7v11.9h11.4v5.1H44.8v12h-5.4v-12H28.1v-5.1h11.4V69.7H44.8z"/>
</g>
<g>
	<path class="st1" d="M2.7,27.4v11.9h11.4v5.1H2.7v12h-5.4v-12h-11.4v-5.1h11.4V27.4H2.7z"/>
</g>
<g>
	<path class="st1" d="M86.9,27.4v11.9h11.4v5.1H86.9v12h-5.4v-12H70.2v-5.1h11.4V27.4H86.9z"/>
</g>
</svg>
