<?xml version="1.0" encoding="utf-8"?>
<!-- Generator: Adobe Illustrator 21.1.0, SVG Export Plug-In . SVG Version: 6.00 Build 0)  -->
<svg version="1.1" id="Layer_1" xmlns="http://www.w3.org/2000/svg" xmlns:xlink="http://www.w3.org/1999/xlink" x="0px" y="0px"
	 viewBox="0 0 256 290.5" style="enable-background:new 0 0 256 290.5;" xml:space="preserve">
<style type="text/css">
	.st0{fill:#264DE4;}
	.st1{fill:#2965F1;}
	.st2{fill:#EBEBEB;}
	.st3{fill:#FFFFFF;}
</style>
<g>
	<path class="st0" d="M127.8,289.6L23.7,260.7L0.4,0.3h255.1l-23.2,260.4L127.8,289.6L127.8,289.6z"/>
	<path class="st1" d="M212.4,244l19.9-222.5H128v245.9L212.4,244L212.4,244z"/>
	<path class="st2" d="M53.7,118.1l2.9,31.9H128v-31.9H53.7L53.7,118.1z"/>
	<path class="st2" d="M47.9,53.5l2.9,31.9H128V53.5H47.9L47.9,53.5z"/>
	<path class="st2" d="M128,201.1l-0.1,0l-35.6-9.6L90,166H58l4.5,50.1l65.4,18.2l0.1,0V201.1L128,201.1z"/>
	<path class="st3" d="M202.1,118.1l5.8-64.6h-80v31.9h45l-2.9,32.7h-42.1v31.9h39.3l-3.7,41.4l-35.6,9.6v33.2l65.5-18.1l0.5-5.4
		l7.5-84.1L202.1,118.1L202.1,118.1z"/>
</g>
</svg>
