<?xml version="1.0" encoding="utf-8"?>
<!-- Generator: Adobe Illustrator 21.1.0, SVG Export Plug-In . SVG Version: 6.00 Build 0)  -->
<svg version="1.1" id="Layer_1" xmlns="http://www.w3.org/2000/svg" xmlns:xlink="http://www.w3.org/1999/xlink" x="0px" y="0px"
	 viewBox="0 0 74.5 74.5" style="enable-background:new 0 0 74.5 74.5;" xml:space="preserve">
<style type="text/css">
	.st0{fill:#71808F;}
	.st1{fill:#A8B1BA;}
</style>
<rect class="st0" width="74.5" height="74.5"/>
<g>
	<path class="st1" d="M38.7,6.7v6.5H45v2.8h-6.3v6.6h-2.9v-6.6h-6.3v-2.8h6.3V6.7H38.7z"/>
</g>
<g>
	<path class="st1" d="M38.7,53v6.5H45v2.8h-6.3V69h-2.9v-6.6h-6.3v-2.8h6.3V53H38.7z"/>
</g>
<g>
	<path class="st1" d="M15.5,29.3v6.5h6.3v2.8h-6.3v6.6h-2.9v-6.6H6.3v-2.8h6.3v-6.5H15.5z"/>
</g>
<g>
	<path class="st1" d="M62,29.3v6.5h6.3v2.8H62v6.6h-2.9v-6.6h-6.3v-2.8h6.3v-6.5H62z"/>
</g>
</svg>
