<?xml version="1.0" encoding="utf-8"?>
<!-- Generator: Adobe Illustrator 21.1.0, SVG Export Plug-In . SVG Version: 6.00 Build 0)  -->
<svg version="1.1" id="Layer_1" xmlns="http://www.w3.org/2000/svg" xmlns:xlink="http://www.w3.org/1999/xlink" x="0px" y="0px"
	 viewBox="0 0 132.7 132.7" style="enable-background:new 0 0 132.7 132.7;" xml:space="preserve">
<style type="text/css">
	.st0{fill:#71808F;}
	.st1{fill:#A8B1BA;}
</style>
<rect class="st0" width="132.7" height="132.7"/>
<g>
	<path class="st1" d="M71.6-17.4v12.3h11.7V5H71.6v12.4H61.1V5H49.5V-5.1h11.7v-12.3H71.6z"/>
</g>
<g>
	<path class="st1" d="M71.6,115.3v12.3h11.7v10.1H71.6v12.4H61.1v-12.4H49.5v-10.1h11.7v-12.3H71.6z"/>
</g>
<g>
	<path class="st1" d="M137.9,48.7V61h11.7v10.1h-11.7v12.4h-10.5V71.1h-11.6V61h11.7V48.7H137.9z"/>
</g>
<g>
	<path class="st1" d="M5.2,48.7V61h11.7v10.1H5.2v12.4H-5.3V71.1h-11.6V61h11.7V48.7H5.2z"/>
</g>
</svg>
